<svg width="23" height="22" viewBox="0 0 23 22" fill="none" xmlns="http://www.w3.org/2000/svg">
    <path
        d="M14.4808 4.13306C14.8639 3.69373 15.156 3.18344 15.3403 2.63148C15.5246 2.07952 15.5975 1.49677 15.5549 0.916687C14.3788 1.01115 13.2872 1.56153 12.515 2.44925C12.1453 2.87472 11.8651 3.36968 11.691 3.90483C11.517 4.43998 11.4526 5.00444 11.5018 5.5648C12.0754 5.56955 12.6425 5.44289 13.1591 5.19462C13.6757 4.94635 14.1279 4.58312 14.4808 4.13306ZM17.0343 11.6346C17.0411 10.862 17.2456 10.1038 17.6285 9.4317C18.0115 8.75957 18.5602 8.19562 19.223 7.79306C18.8047 7.19339 18.2518 6.69893 17.608 6.3489C16.9643 5.99887 16.2475 5.8029 15.5144 5.77653C13.9336 5.61521 12.4745 6.69405 11.6335 6.69405C10.7925 6.69405 9.60692 5.7967 8.28965 5.81686C7.42849 5.84509 6.58938 6.09492 5.85417 6.54199C5.11896 6.98906 4.51275 7.61811 4.09466 8.36778C2.31128 11.4531 3.63868 16.0407 5.42206 18.5311C6.23269 19.7511 7.24597 21.1324 8.5835 21.082C9.92104 21.0316 10.3567 20.2552 11.9071 20.2552C13.4574 20.2552 13.9336 21.082 15.2509 21.0518C16.5682 21.0215 17.5004 19.8015 18.3515 18.5815C18.9545 17.6958 19.4255 16.7279 19.7499 15.708C18.9468 15.3672 18.2617 14.7998 17.7791 14.0759C17.2965 13.352 17.0375 12.5033 17.0343 11.6346Z"
        fill="black" />
</svg>
