<svg width="22" height="22" viewBox="0 0 22 22" fill="none" xmlns="http://www.w3.org/2000/svg">
    <g clip-path="url(#clip0_245_25495)">
        <path
            d="M21.5413 11.0641C21.5413 5.24205 16.8217 0.52239 10.9997 0.52239C5.17767 0.52239 0.458008 5.24205 0.458008 11.0641C0.458008 16.3257 4.31294 20.6868 9.35254 21.4777V14.1113H6.67594V11.0641H9.35254V8.7416C9.35254 6.09959 10.9263 4.64023 13.3343 4.64023C14.4876 4.64023 15.694 4.84612 15.694 4.84612V7.44036H14.3647C13.0552 7.44036 12.6468 8.25295 12.6468 9.08661V11.0641H15.5705L15.1031 14.1113H12.6468V21.4777C17.6864 20.6868 21.5413 16.3257 21.5413 11.0641Z"
            fill="#1877F2" />
    </g>
    <defs>
        <clipPath id="clip0_245_25495">
            <rect width="22" height="22" rx="11" fill="white" />
        </clipPath>
    </defs>
</svg>
