<svg width="23" height="22" viewBox="0 0 23 22" fill="none" xmlns="http://www.w3.org/2000/svg">
    <path fill-rule="evenodd" clip-rule="evenodd"
        d="M21.62 11.2396C21.62 10.4921 21.5529 9.77331 21.4283 9.08331H11.5V13.161H17.1733C16.929 14.4787 16.1862 15.5952 15.0698 16.3427V18.9877H18.4767C20.47 17.1525 21.62 14.45 21.62 11.2396Z"
        fill="#4285F4" />
    <path fill-rule="evenodd" clip-rule="evenodd"
        d="M11.4995 21.5415C14.3458 21.5415 16.732 20.5975 18.4762 18.9875L15.0693 16.3425C14.1254 16.975 12.9179 17.3488 11.4995 17.3488C8.75389 17.3488 6.42993 15.4944 5.60098 13.0027H2.0791V15.734C3.81368 19.1792 7.37868 21.5415 11.4995 21.5415Z"
        fill="#34A853" />
    <path fill-rule="evenodd" clip-rule="evenodd"
        d="M5.60113 13.003C5.3903 12.3705 5.27051 11.6948 5.27051 11C5.27051 10.3052 5.3903 9.62962 5.60113 8.99712V6.26587H2.07926C1.3653 7.68899 0.958008 9.29899 0.958008 11C0.958008 12.7011 1.3653 14.3111 2.07926 15.7342L5.60113 13.003Z"
        fill="#FBBC05" />
    <path fill-rule="evenodd" clip-rule="evenodd"
        d="M11.4995 4.65102C13.0472 4.65102 14.4368 5.1829 15.5293 6.22748L18.5529 3.20394C16.7272 1.5029 14.341 0.458313 11.4995 0.458313C7.37869 0.458313 3.81369 2.8206 2.0791 6.26581L5.60098 8.99706C6.42993 6.5054 8.75389 4.65102 11.4995 4.65102Z"
        fill="#EA4335" />
</svg>
