<svg width="111" height="110" viewBox="0 0 111 110" fill="none" xmlns="http://www.w3.org/2000/svg">
    <path
        d="M55.5 105C83.1142 105 105.5 82.6142 105.5 55C105.5 27.3858 83.1142 5 55.5 5C27.8858 5 5.5 27.3858 5.5 55C5.5 82.6142 27.8858 105 55.5 105Z"
        fill="#E9E9EC" />
    <path
        d="M30.4996 84.0001V95.0001H25.4996C21.2978 91.8461 17.6193 88.0495 14.5996 83.7501C15.2215 83.4104 15.8986 83.1836 16.5996 83.0801C16.8862 81.3681 17.7986 79.8236 19.1598 78.7465C20.521 77.6693 22.2338 77.1363 23.9659 77.2509C25.6979 77.3656 27.3256 78.1197 28.5329 79.3668C29.7403 80.614 30.4412 82.2653 30.4996 84.0001ZM96.3996 83.7501C93.3799 88.0495 89.7014 91.8461 85.4996 95.0001H80.4996V84.0001C80.5161 82.2348 81.199 80.5409 82.4114 79.2578C83.6239 77.9746 85.2765 77.197 87.038 77.0807C88.7995 76.9643 90.54 77.5179 91.9107 78.6304C93.2814 79.7429 94.1811 81.3323 94.4296 83.0801C95.1203 83.187 95.787 83.4137 96.3996 83.7501Z"
        fill="#C8C8D0" />
    <path d="M85.5 22H69.5V48H85.5V22Z" fill="#ACACB9" />
    <path
        d="M86.5 49V94.22C84.7571 95.602 82.9229 96.8649 81.01 98H30.01C28.0902 96.8656 26.2494 95.6028 24.5 94.22V49L55.5 20L86.5 49Z"
        fill="#D6D6DC" />
    <path
        d="M94.8696 54.5501L92.1296 57.4501C91.9492 57.6414 91.7328 57.7953 91.4928 57.9029C91.2529 58.0104 90.994 58.0696 90.7312 58.077C90.4683 58.0845 90.2066 58.04 89.9609 57.9462C89.7153 57.8523 89.4905 57.7109 89.2996 57.5301L55.4996 25.5101L21.6996 57.5101C21.5086 57.6909 21.2839 57.8323 21.0383 57.9262C20.7926 58.02 20.5309 58.0645 20.268 58.057C20.0051 58.0496 19.7463 57.9904 19.5064 57.8829C19.2664 57.7753 19.05 57.6214 18.8696 57.4301L16.1296 54.5301C15.9482 54.3398 15.806 54.1156 15.7113 53.8703C15.6167 53.625 15.5713 53.3635 15.5778 53.1006C15.5843 52.8378 15.6425 52.5788 15.7492 52.3385C15.8559 52.0982 16.009 51.8812 16.1996 51.7001L52.7496 17.1001C53.4925 16.3968 54.4766 16.0049 55.4996 16.0049C56.5226 16.0049 57.5067 16.3968 58.2496 17.1001L94.7996 51.7201C94.9902 51.9012 95.1432 52.1182 95.2499 52.3585C95.3566 52.5988 95.4149 52.8578 95.4214 53.1206C95.4279 53.3835 95.3825 53.645 95.2878 53.8903C95.1931 54.1356 95.051 54.3598 94.8696 54.5501Z"
        fill="#C8C8D0" />
    <path
        d="M81.0098 98C73.2911 102.576 64.4831 104.991 55.5098 104.991C46.5364 104.991 37.7284 102.576 30.0098 98H81.0098Z"
        fill="#E9E9EC" />
    <path
        d="M87.5 14H67.5C66.9477 14 66.5 14.4477 66.5 15V21C66.5 21.5523 66.9477 22 67.5 22H87.5C88.0523 22 88.5 21.5523 88.5 21V15C88.5 14.4477 88.0523 14 87.5 14Z"
        fill="#C8C8D0" />
    <path d="M49.5 66H31.5V98H49.5V66Z" fill="#ACACB9" />
    <path d="M77.5 66H57.5V84H77.5V66Z" fill="white" />
    <path
        d="M77.5 85H57.5C57.2348 85 56.9804 84.8946 56.7929 84.7071C56.6054 84.5196 56.5 84.2652 56.5 84V66C56.5 65.7348 56.6054 65.4804 56.7929 65.2929C56.9804 65.1054 57.2348 65 57.5 65H77.5C77.7652 65 78.0196 65.1054 78.2071 65.2929C78.3946 65.4804 78.5 65.7348 78.5 66V84C78.5 84.2652 78.3946 84.5196 78.2071 84.7071C78.0196 84.8946 77.7652 85 77.5 85ZM58.5 83H76.5V67H58.5V83Z"
        fill="#C8C8D0" />
    <path
        d="M55.5 57C59.9183 57 63.5 53.4183 63.5 49C63.5 44.5817 59.9183 41 55.5 41C51.0817 41 47.5 44.5817 47.5 49C47.5 53.4183 51.0817 57 55.5 57Z"
        fill="white" />
    <path
        d="M55.5 58C53.72 58 51.9799 57.4722 50.4999 56.4832C49.0198 55.4943 47.8663 54.0887 47.1851 52.4442C46.5039 50.7996 46.3257 48.99 46.6729 47.2442C47.0202 45.4984 47.8774 43.8947 49.136 42.636C50.3947 41.3774 51.9984 40.5202 53.7442 40.1729C55.49 39.8257 57.2996 40.0039 58.9441 40.6851C60.5887 41.3663 61.9943 42.5198 62.9832 43.9999C63.9722 45.4799 64.5 47.22 64.5 49C64.5 51.387 63.5518 53.6761 61.864 55.364C60.1761 57.0518 57.8869 58 55.5 58ZM55.5 42C54.1155 42 52.7622 42.4105 51.611 43.1797C50.4599 43.9489 49.5627 45.0421 49.0328 46.3212C48.503 47.6003 48.3644 49.0078 48.6345 50.3656C48.9046 51.7235 49.5713 52.9708 50.5503 53.9498C51.5292 54.9287 52.7765 55.5954 54.1344 55.8655C55.4922 56.1356 56.8997 55.997 58.1788 55.4672C59.4579 54.9373 60.5511 54.0401 61.3203 52.889C62.0895 51.7379 62.5 50.3845 62.5 49C62.5 47.1435 61.7625 45.363 60.4497 44.0503C59.137 42.7375 57.3565 42 55.5 42ZM67.5 85C67.2348 85 66.9804 84.8946 66.7929 84.7071C66.6054 84.5196 66.5 84.2652 66.5 84V66C66.5 65.7348 66.6054 65.4804 66.7929 65.2929C66.9804 65.1054 67.2348 65 67.5 65C67.7652 65 68.0196 65.1054 68.2071 65.2929C68.3946 65.4804 68.5 65.7348 68.5 66V84C68.5 84.2652 68.3946 84.5196 68.2071 84.7071C68.0196 84.8946 67.7652 85 67.5 85ZM49.5 65H31.5C31.2348 65 30.9804 65.1054 30.7929 65.2929C30.6054 65.4804 30.5 65.7348 30.5 66V98H32.5V67H48.5V82H45.5C45.2348 82 44.9804 82.1054 44.7929 82.2929C44.6054 82.4804 44.5 82.7348 44.5 83C44.5 83.2652 44.6054 83.5196 44.7929 83.7071C44.9804 83.8946 45.2348 84 45.5 84H48.5V98H50.5V66C50.5 65.7348 50.3946 65.4804 50.2071 65.2929C50.0196 65.1054 49.7652 65 49.5 65Z"
        fill="#C8C8D0" />
    <path
        d="M30.4999 27.9998C30.4999 29.8563 29.7624 31.6368 28.4497 32.9496C27.1369 34.2623 25.3564 34.9998 23.4999 34.9998H9.66992C12.5849 28.3352 16.9191 22.3868 22.3699 17.5698C23.2816 18.5531 23.9315 19.7498 24.2599 21.0498C25.9732 21.2369 27.5572 22.0495 28.7086 23.3319C29.86 24.6143 30.4978 26.2764 30.4999 27.9998ZM104.69 45.9998H96.4999C95.5807 46.0497 94.6606 45.9181 93.7922 45.6124C92.9238 45.3067 92.1242 44.833 91.4389 44.2183C90.7536 43.6035 90.1961 42.8599 89.7982 42.0297C89.4003 41.1995 89.1698 40.2991 89.1199 39.3798C89.07 38.4606 89.2017 37.5405 89.5073 36.6721C89.813 35.8037 90.2868 35.0041 90.9015 34.3188C91.5162 33.6335 92.2599 33.076 93.0901 32.6781C93.9202 32.2802 94.8207 32.0497 95.7399 31.9998C96.0924 30.6124 96.8107 29.345 97.8199 28.3298C101.225 33.723 103.558 39.7227 104.69 45.9998Z"
        fill="white" />
    <path
        d="M79.5 83H55.5C54.9477 83 54.5 83.4477 54.5 84V86C54.5 86.5523 54.9477 87 55.5 87H79.5C80.0523 87 80.5 86.5523 80.5 86V84C80.5 83.4477 80.0523 83 79.5 83Z"
        fill="#ACACB9" />
</svg>
