<svg width="122" height="36" viewBox="0 0 122 36" fill="none" xmlns="http://www.w3.org/2000/svg">
<g clip-path="url(#clip0_4375_56596)">
<path d="M15.3164 24.489L12.2016 27.4999H13.2399L15.3164 26.7732L17.3929 27.4999H18.4311L15.3164 24.489Z" fill="#80005A"/>
<path d="M25.3875 18.623C25.3875 20.1803 25.0344 21.6546 24.4115 22.9732L22.0443 20.7825C22.2623 20.0973 22.3765 19.3809 22.3765 18.623C22.3765 14.6984 19.1891 11.5109 15.2645 11.5109C11.3399 11.5109 8.15247 14.6984 8.15247 18.623C8.15247 19.4016 8.27706 20.1492 8.50548 20.8448L6.13826 23.0148C5.50493 21.6858 5.14154 20.2011 5.14154 18.623C5.14154 13.0268 9.6787 8.5 15.2645 8.5C20.8503 8.5 25.3875 13.0268 25.3875 18.623Z" fill="#80005A"/>
<path d="M15.3166 17.1174L3.99968 27.4999H7.84122L15.3166 20.7513L22.792 27.4999H26.5297L15.3166 17.1174Z" fill="#80005A"/>
</g>
<path d="M114.759 25.2604L111.805 21.7505L110.908 22.7255V25.2604H108.314V10.8799H110.908V19.2547L114.661 15.0819H118.015L113.647 19.7909L118.161 25.2604H114.759Z" fill="#80005A"/>
<path d="M102.017 25.5043C100.463 25.5043 99.16 24.9941 98.1071 23.9736C97.0606 22.9532 96.5374 21.6858 96.5374 20.1713C96.5374 18.6569 97.0606 17.3895 98.1071 16.369C99.16 15.3486 100.463 14.8384 102.017 14.8384C103.031 14.8384 103.947 15.0659 104.766 15.5208C105.591 15.9758 106.238 16.5933 106.706 17.3732L104.444 18.7284C104.21 18.3124 103.879 17.981 103.45 17.734C103.027 17.4805 102.55 17.3537 102.017 17.3537C101.217 17.3537 100.551 17.6235 100.018 18.1629C99.485 18.7024 99.2185 19.3719 99.2185 20.1713C99.2185 20.9708 99.485 21.6403 100.018 22.1797C100.551 22.7192 101.217 22.9889 102.017 22.9889C102.543 22.9889 103.021 22.8654 103.45 22.6185C103.879 22.365 104.21 22.027 104.444 21.6045L106.706 22.9597C106.238 23.7461 105.591 24.3669 104.766 24.8218C103.947 25.2768 103.031 25.5043 102.017 25.5043Z" fill="#80005A"/>
<path d="M95.3481 20.1908C95.3481 20.5158 95.3286 20.8213 95.2896 21.1073H87.4023C87.5843 21.7508 87.932 22.261 88.4455 22.638C88.959 23.0149 89.5829 23.2034 90.3174 23.2034C90.9088 23.2034 91.4516 23.0864 91.9455 22.8524C92.4395 22.612 92.8295 22.3097 93.1155 21.9457L94.8509 23.4667C94.3114 24.1101 93.6419 24.6106 92.8425 24.9681C92.0495 25.3256 91.1818 25.5043 90.2394 25.5043C89.1734 25.5043 88.2082 25.2703 87.3438 24.8023C86.4793 24.3344 85.8034 23.6909 85.3159 22.8719C84.8284 22.0465 84.5847 21.1333 84.5847 20.1323C84.5847 19.1444 84.8187 18.2474 85.2866 17.4415C85.7611 16.629 86.4111 15.9921 87.2365 15.5306C88.0685 15.0691 88.9882 14.8384 89.9956 14.8384C91.5231 14.8384 92.797 15.3486 93.8174 16.369C94.8379 17.383 95.3481 18.6569 95.3481 20.1908ZM91.6238 17.6852C91.1558 17.3017 90.6066 17.11 89.9761 17.11C89.3457 17.11 88.7965 17.3017 88.3285 17.6852C87.8605 18.0622 87.5453 18.5692 87.3828 19.2061H92.5793C92.4168 18.5692 92.0983 18.0622 91.6238 17.6852Z" fill="#80005A"/>
<path d="M85.1692 11.4844V14.0777H81.1914V25.2604H78.4421V14.0777H74.4448V11.4844H85.1692Z" fill="#80005A"/>
<path d="M73.5289 23.9736C72.4824 24.9941 71.1825 25.5043 69.6291 25.5043C68.0757 25.5043 66.7725 24.9941 65.7196 23.9736C64.6731 22.9532 64.1499 21.6858 64.1499 20.1713C64.1499 18.6569 64.6731 17.3895 65.7196 16.369C66.7725 15.3486 68.0757 14.8384 69.6291 14.8384C71.1825 14.8384 72.4824 15.3486 73.5289 16.369C74.5753 17.3895 75.0985 18.6569 75.0985 20.1713C75.0985 21.6858 74.5753 22.9532 73.5289 23.9736ZM69.6291 22.9889C70.435 22.9889 71.1013 22.7225 71.6277 22.1895C72.1542 21.65 72.4174 20.9773 72.4174 20.1713C72.4174 19.3654 72.1542 18.6959 71.6277 18.1629C71.1013 17.6235 70.435 17.3537 69.6291 17.3537C68.8296 17.3537 68.1634 17.6235 67.6304 18.1629C67.0975 18.7024 66.831 19.3719 66.831 20.1713C66.831 20.9708 67.0975 21.6403 67.6304 22.1797C68.1634 22.7192 68.8296 22.9889 69.6291 22.9889Z" fill="#80005A"/>
<path d="M60.9806 25.2604L58.0265 21.7505L57.1296 22.7255V25.2604H54.5362V10.8799H57.1296V19.2547L60.8831 15.0819H64.237L59.8692 19.7909L64.3832 25.2604H60.9806Z" fill="#80005A"/>
<path d="M51.924 13.1126C51.612 13.4246 51.2252 13.5806 50.7638 13.5806C50.3023 13.5806 49.9123 13.4246 49.5938 13.1126C49.2819 12.8006 49.1259 12.4171 49.1259 11.9622C49.1259 11.5072 49.2819 11.1237 49.5938 10.8117C49.9123 10.4997 50.3023 10.3438 50.7638 10.3438C51.2252 10.3438 51.612 10.4997 51.924 10.8117C52.2424 11.1237 52.4017 11.5072 52.4017 11.9622C52.4017 12.4171 52.2424 12.8006 51.924 13.1126ZM49.4671 25.2604V15.082H52.0605V25.2604H49.4671Z" fill="#80005A"/>
<path d="M43.1392 24.9582C42.2422 25.3222 41.2835 25.5042 40.2631 25.5042C39.2427 25.5042 38.284 25.3222 37.387 24.9582C36.49 24.5877 35.7198 24.0873 35.0764 23.4568C34.4329 22.8263 33.9259 22.0724 33.5555 21.1949C33.185 20.311 32.9997 19.3685 32.9997 18.3676C32.9997 17.3666 33.185 16.4274 33.5555 15.55C33.9259 14.666 34.4329 13.9088 35.0764 13.2784C35.7198 12.6479 36.49 12.1507 37.387 11.7867C38.284 11.4227 39.2427 11.2407 40.2631 11.2407C41.6215 11.2407 42.8565 11.5527 43.9679 12.1767C45.0793 12.7941 45.9503 13.6488 46.5808 14.7408C47.2177 15.8262 47.5362 17.0352 47.5362 18.3676C47.5362 19.3685 47.3477 20.311 46.9707 21.1949C46.6003 22.0724 46.0933 22.8263 45.4498 23.4568C44.8129 24.0873 44.0426 24.5877 43.1392 24.9582ZM37.0945 21.5654C37.946 22.4169 39.0022 22.8426 40.2631 22.8426C41.524 22.8426 42.577 22.4169 43.4219 21.5654C44.2734 20.7075 44.6991 19.6415 44.6991 18.3676C44.6991 17.0937 44.2734 16.031 43.4219 15.1795C42.577 14.3281 41.524 13.9023 40.2631 13.9023C39.0022 13.9023 37.946 14.3281 37.0945 15.1795C36.2496 16.031 35.8271 17.0937 35.8271 18.3676C35.8271 19.6415 36.2496 20.7075 37.0945 21.5654Z" fill="#80005A"/>
<defs>
<clipPath id="clip0_4375_56596">
<rect width="22.5301" height="19" fill="white" transform="translate(4 8.5)"/>
</clipPath>
</defs>
</svg>
