<svg width="393" height="285" viewBox="0 0 393 285" fill="none" xmlns="http://www.w3.org/2000/svg">
    <g clip-path="url(#clip0_390_20224)">
        <path
            d="M400.35 281.8C400.75 249.5 372.15 229 372.95 204.4C373.75 179.2 398.35 155.9 384.85 90.6999C371.35 25.4999 305.55 -7.20005 245.25 6.79995C184.95 20.7999 198.45 58.0999 141.45 57.0999C84.3504 56.1999 39.2504 56.2 5.15039 135.4C-26.6496 209.2 -6.04961 273.4 -3.14961 281.7H400.35V281.8Z"
            fill="#82065E" />
        <path opacity="0.7"
            d="M400.35 281.8C400.75 249.5 372.15 229 372.95 204.4C373.75 179.2 398.35 155.9 384.85 90.6999C371.35 25.4999 305.55 -7.20005 245.25 6.79995C184.95 20.7999 198.45 58.0999 141.45 57.0999C84.3504 56.1999 39.2504 56.2 5.15039 135.4C-26.6496 209.2 -6.04961 273.4 -3.14961 281.7H400.35V281.8Z"
            fill="white" />
        <path
            d="M393.25 281.1L265.95 19.6L218.25 106.2L157.35 66.3L104.55 123.8L79.4504 99.6L8.75039 259.6L-6.34961 281.1H393.25Z"
            fill="#82065E" />
        <path opacity="0.5"
            d="M393.25 281.1L265.95 19.6L218.25 106.2L157.35 66.3L104.55 123.8L79.4504 99.6L8.75039 259.6L-6.34961 281.1H393.25Z"
            fill="white" />
        <path d="M260.15 136.3L263.15 138.6" stroke="white" stroke-miterlimit="10" stroke-linecap="round"
            stroke-linejoin="round" />
        <path d="M222.251 107.4L255.751 133" stroke="white" stroke-miterlimit="10" stroke-linecap="round"
            stroke-linejoin="round" />
        <path d="M99.9508 131.2L76.5508 156.8" stroke="white" stroke-miterlimit="10" stroke-linecap="round"
            stroke-linejoin="round" />
        <path
            d="M276.05 79.1V52.1L279.35 53.4L279.65 47.7L265.95 19.6L248.65 51L258.25 42.9L260.25 52.1L265.55 48.1L276.05 79.1Z"
            fill="white" />
        <path
            d="M173.75 87.7999L175.65 78.2999L157.35 66.2999L143.25 81.6999L153.75 77.5999L160.45 87.7999L160.95 80.0999L173.75 87.7999Z"
            fill="white" />
        <path d="M374.651 165.3H207.251V280.6H374.651V165.3Z" fill="#82065E" stroke="#263238" stroke-miterlimit="10"
            stroke-linecap="round" stroke-linejoin="round" />
        <path d="M309.151 224.6H285.751V280.6H309.151V224.6Z" fill="white" stroke="#263238" stroke-miterlimit="10"
            stroke-linecap="round" stroke-linejoin="round" />
        <path d="M306.651 228.6H288.251V280.6H306.651V228.6Z" fill="#263238" stroke="#263238" stroke-miterlimit="10"
            stroke-linecap="round" stroke-linejoin="round" />
        <path d="M323.251 217H318.251V280.6H323.251V217Z" fill="white" stroke="#263238" stroke-miterlimit="10"
            stroke-linecap="round" stroke-linejoin="round" />
        <path d="M324.051 258.3H317.351V280.6H324.051V258.3Z" fill="white" stroke="#263238" stroke-miterlimit="10"
            stroke-linecap="round" stroke-linejoin="round" />
        <path
            d="M379.751 166.8H224.151C223.851 166.8 223.751 166.4 224.051 166.3L267.451 147.5C268.251 147.2 269.051 147 269.951 147H329.851C330.651 147 331.451 147.2 332.151 147.4L379.651 166.3C380.051 166.4 380.051 166.8 379.751 166.8Z"
            fill="#263238" stroke="#263238" stroke-miterlimit="10" stroke-linecap="round" stroke-linejoin="round" />
        <path d="M328.951 222H239.551L246.251 202.6H317.051L328.951 222Z" fill="#263238" stroke="#263238"
            stroke-miterlimit="10" stroke-linecap="round" stroke-linejoin="round" />
        <path d="M277.851 165.3H201.351V280.6H277.851V165.3Z" fill="white" stroke="#263238" stroke-miterlimit="10"
            stroke-linecap="round" stroke-linejoin="round" />
        <path d="M277.851 260.6H201.351V280.6H277.851V260.6Z" fill="#82065E" stroke="#263238" stroke-miterlimit="10"
            stroke-linecap="round" stroke-linejoin="round" />
        <path
            d="M238.451 146.1L196.651 165.1C196.351 165.2 196.451 165.6 196.751 165.6H282.351C282.651 165.6 282.751 165.2 282.451 165.1L240.651 146.1C240.051 145.8 239.151 145.8 238.451 146.1Z"
            fill="#263238" stroke="#263238" stroke-miterlimit="10" stroke-linecap="round" stroke-linejoin="round" />
        <path
            d="M297.451 239.1C298.556 239.1 299.451 238.205 299.451 237.1C299.451 235.996 298.556 235.1 297.451 235.1C296.347 235.1 295.451 235.996 295.451 237.1C295.451 238.205 296.347 239.1 297.451 239.1Z"
            fill="white" />
        <path d="M369.551 229.6H332.551V260.6H369.551V229.6Z" fill="white" stroke="#263238" stroke-miterlimit="10"
            stroke-linecap="round" stroke-linejoin="round" />
        <path d="M355.551 232.4H346.551V239.1H355.551V232.4Z" fill="#263238" stroke="#263238" stroke-miterlimit="10"
            stroke-linecap="round" stroke-linejoin="round" />
        <path d="M355.551 242.1H346.551V257.8H355.551V242.1Z" fill="#263238" stroke="#263238" stroke-miterlimit="10"
            stroke-linecap="round" stroke-linejoin="round" />
        <path d="M344.051 232.4H335.951V239.1H344.051V232.4Z" fill="#263238" stroke="#263238" stroke-miterlimit="10"
            stroke-linecap="round" stroke-linejoin="round" />
        <path d="M366.151 232.4H358.051V239.1H366.151V232.4Z" fill="#263238" stroke="#263238" stroke-miterlimit="10"
            stroke-linecap="round" stroke-linejoin="round" />
        <path d="M366.151 242.1H358.051V257.8H366.151V242.1Z" fill="#263238" stroke="#263238" stroke-miterlimit="10"
            stroke-linecap="round" stroke-linejoin="round" />
        <path d="M344.051 242.1H335.951V257.8H344.051V242.1Z" fill="#263238" stroke="#263238" stroke-miterlimit="10"
            stroke-linecap="round" stroke-linejoin="round" />
        <path d="M263.051 229.6H216.051V260.6H263.051V229.6Z" fill="white" stroke="#263238" stroke-miterlimit="10"
            stroke-linecap="round" stroke-linejoin="round" />
        <path d="M239.051 232.4H230.051V239.1H239.051V232.4Z" fill="#263238" stroke="#263238" stroke-miterlimit="10"
            stroke-linecap="round" stroke-linejoin="round" />
        <path d="M239.051 242.1H230.051V257.8H239.051V242.1Z" fill="#263238" stroke="#263238" stroke-miterlimit="10"
            stroke-linecap="round" stroke-linejoin="round" />
        <path d="M227.551 232.4H219.451V239.1H227.551V232.4Z" fill="#263238" stroke="#263238" stroke-miterlimit="10"
            stroke-linecap="round" stroke-linejoin="round" />
        <path d="M249.651 232.4H241.551V239.1H249.651V232.4Z" fill="#263238" stroke="#263238" stroke-miterlimit="10"
            stroke-linecap="round" stroke-linejoin="round" />
        <path d="M249.651 242.1H241.551V257.8H249.651V242.1Z" fill="#263238" stroke="#263238" stroke-miterlimit="10"
            stroke-linecap="round" stroke-linejoin="round" />
        <path d="M260.151 232.4H252.051V239.1H260.151V232.4Z" fill="#263238" stroke="#263238" stroke-miterlimit="10"
            stroke-linecap="round" stroke-linejoin="round" />
        <path d="M260.151 242.1H252.051V257.8H260.151V242.1Z" fill="#263238" stroke="#263238" stroke-miterlimit="10"
            stroke-linecap="round" stroke-linejoin="round" />
        <path d="M227.551 242.1H219.451V257.8H227.551V242.1Z" fill="#263238" stroke="#263238" stroke-miterlimit="10"
            stroke-linecap="round" stroke-linejoin="round" />
        <path d="M263.051 170.1H216.051V201.1H263.051V170.1Z" fill="white" stroke="#263238" stroke-miterlimit="10"
            stroke-linecap="round" stroke-linejoin="round" />
        <path d="M239.051 172.9H230.051V179.6H239.051V172.9Z" fill="#263238" stroke="#263238" stroke-miterlimit="10"
            stroke-linecap="round" stroke-linejoin="round" />
        <path d="M239.051 182.6H230.051V198.3H239.051V182.6Z" fill="#263238" stroke="#263238" stroke-miterlimit="10"
            stroke-linecap="round" stroke-linejoin="round" />
        <path d="M227.551 172.9H219.451V179.6H227.551V172.9Z" fill="#263238" stroke="#263238" stroke-miterlimit="10"
            stroke-linecap="round" stroke-linejoin="round" />
        <path d="M249.651 172.9H241.551V179.6H249.651V172.9Z" fill="#263238" stroke="#263238" stroke-miterlimit="10"
            stroke-linecap="round" stroke-linejoin="round" />
        <path d="M249.651 182.6H241.551V198.3H249.651V182.6Z" fill="#263238" stroke="#263238" stroke-miterlimit="10"
            stroke-linecap="round" stroke-linejoin="round" />
        <path d="M260.151 172.9H252.051V179.6H260.151V172.9Z" fill="#263238" stroke="#263238" stroke-miterlimit="10"
            stroke-linecap="round" stroke-linejoin="round" />
        <path d="M260.151 182.6H252.051V198.3H260.151V182.6Z" fill="#263238" stroke="#263238" stroke-miterlimit="10"
            stroke-linecap="round" stroke-linejoin="round" />
        <path d="M227.551 182.6H219.451V198.3H227.551V182.6Z" fill="#263238" stroke="#263238" stroke-miterlimit="10"
            stroke-linecap="round" stroke-linejoin="round" />
        <path d="M369.551 170.1H332.551V201.1H369.551V170.1Z" fill="white" stroke="#263238" stroke-miterlimit="10"
            stroke-linecap="round" stroke-linejoin="round" />
        <path d="M355.551 172.9H346.551V179.6H355.551V172.9Z" fill="#263238" stroke="#263238" stroke-miterlimit="10"
            stroke-linecap="round" stroke-linejoin="round" />
        <path d="M355.551 182.6H346.551V198.3H355.551V182.6Z" fill="#263238" stroke="#263238" stroke-miterlimit="10"
            stroke-linecap="round" stroke-linejoin="round" />
        <path d="M344.051 172.9H335.951V179.6H344.051V172.9Z" fill="#263238" stroke="#263238" stroke-miterlimit="10"
            stroke-linecap="round" stroke-linejoin="round" />
        <path d="M366.151 172.9H358.051V179.6H366.151V172.9Z" fill="#263238" stroke="#263238" stroke-miterlimit="10"
            stroke-linecap="round" stroke-linejoin="round" />
        <path d="M366.151 182.6H358.051V198.3H366.151V182.6Z" fill="#263238" stroke="#263238" stroke-miterlimit="10"
            stroke-linecap="round" stroke-linejoin="round" />
        <path d="M344.051 182.6H335.951V198.3H344.051V182.6Z" fill="#263238" stroke="#263238" stroke-miterlimit="10"
            stroke-linecap="round" stroke-linejoin="round" />
        <path d="M311.051 170.1H285.051V201.1H311.051V170.1Z" fill="white" stroke="#263238" stroke-miterlimit="10"
            stroke-linecap="round" stroke-linejoin="round" />
        <path d="M308.051 172.9H299.051V179.6H308.051V172.9Z" fill="#263238" stroke="#263238" stroke-miterlimit="10"
            stroke-linecap="round" stroke-linejoin="round" />
        <path d="M308.051 182.6H299.051V198.3H308.051V182.6Z" fill="#263238" stroke="#263238" stroke-miterlimit="10"
            stroke-linecap="round" stroke-linejoin="round" />
        <path d="M296.551 172.9H288.451V179.6H296.551V172.9Z" fill="#263238" stroke="#263238" stroke-miterlimit="10"
            stroke-linecap="round" stroke-linejoin="round" />
        <path d="M296.551 182.6H288.451V198.3H296.551V182.6Z" fill="#263238" stroke="#263238" stroke-miterlimit="10"
            stroke-linecap="round" stroke-linejoin="round" />
        <path d="M359.851 260.6H342.351V265.6H359.851V260.6Z" fill="#82065E" stroke="#263238" stroke-miterlimit="10"
            stroke-linecap="round" stroke-linejoin="round" />
        <path d="M249.15 260.6H231.65V265.6H249.15V260.6Z" fill="#82065E" stroke="#263238" stroke-miterlimit="10"
            stroke-linecap="round" stroke-linejoin="round" />
        <path d="M160.85 180.6H25.25V280.6H160.85V180.6Z" fill="white" stroke="#263238" stroke-miterlimit="10"
            stroke-linecap="round" stroke-linejoin="round" />
        <path d="M172.25 183.4H13.75L25.65 187.7H160.45L172.25 183.4Z" fill="#82065E" stroke="#263238"
            stroke-miterlimit="10" stroke-linecap="round" stroke-linejoin="round" />
        <path
            d="M172.25 183.4H13.75L24.65 167.9C25.25 167 26.35 166.4 27.45 166.4H158.65C159.75 166.4 160.85 166.9 161.45 167.9L172.25 183.4Z"
            fill="#263238" stroke="#263238" stroke-miterlimit="10" stroke-linecap="round" stroke-linejoin="round" />
        <path d="M38.8508 154.2H27.5508V169.3H38.8508V154.2Z" fill="white" stroke="#263238" stroke-miterlimit="10"
            stroke-linecap="round" stroke-linejoin="round" />
        <path d="M38.8506 154.2H35.8506V169.3H38.8506V154.2Z" fill="white" stroke="#263238" stroke-miterlimit="10"
            stroke-linecap="round" stroke-linejoin="round" />
        <path d="M40.6504 149.4H25.6504V157.2H40.6504V149.4Z" fill="white" stroke="#263238" stroke-miterlimit="10"
            stroke-linecap="round" stroke-linejoin="round" />
        <path d="M40.6502 149.4H35.4502V157.2H40.6502V149.4Z" fill="white" stroke="#263238" stroke-miterlimit="10"
            stroke-linecap="round" stroke-linejoin="round" />
        <path d="M60.0498 188.3H41.5498V217.1H60.0498V188.3Z" fill="white" stroke="#263238" stroke-miterlimit="10"
            stroke-linecap="round" stroke-linejoin="round" />
        <path d="M58.0498 190.1H43.5498V215.7H58.0498V190.1Z" fill="#263238" stroke="white" stroke-miterlimit="10"
            stroke-linecap="round" stroke-linejoin="round" />
        <path d="M58.0498 190.1H43.5498V204.1H58.0498V190.1Z" fill="#263238" stroke="white" stroke-miterlimit="10"
            stroke-linecap="round" stroke-linejoin="round" />
        <path d="M54.0498 190.1H47.5498V204.1H54.0498V190.1Z" fill="#263238" stroke="white" stroke-miterlimit="10"
            stroke-linecap="round" stroke-linejoin="round" />
        <path d="M63.0498 243.8H38.5498V272.6H63.0498V243.8Z" fill="white" stroke="#263238" stroke-miterlimit="10"
            stroke-linecap="round" stroke-linejoin="round" />
        <path d="M60.45 245.6H41.25V271.2H60.45V245.6Z" fill="#263238" stroke="white" stroke-miterlimit="10"
            stroke-linecap="round" stroke-linejoin="round" />
        <path d="M60.45 245.6H41.25V259.6H60.45V245.6Z" fill="#263238" stroke="white" stroke-miterlimit="10"
            stroke-linecap="round" stroke-linejoin="round" />
        <path d="M55.1498 245.6H46.5498V259.6H55.1498V245.6Z" fill="#263238" stroke="white" stroke-miterlimit="10"
            stroke-linecap="round" stroke-linejoin="round" />
        <path d="M147.05 243.8H122.55V272.6H147.05V243.8Z" fill="white" stroke="#263238" stroke-miterlimit="10"
            stroke-linecap="round" stroke-linejoin="round" />
        <path d="M144.45 245.6H125.25V271.2H144.45V245.6Z" fill="#263238" stroke="white" stroke-miterlimit="10"
            stroke-linecap="round" stroke-linejoin="round" />
        <path d="M144.45 245.6H125.25V259.6H144.45V245.6Z" fill="#263238" stroke="white" stroke-miterlimit="10"
            stroke-linecap="round" stroke-linejoin="round" />
        <path d="M139.15 245.6H130.55V259.6H139.15V245.6Z" fill="#263238" stroke="white" stroke-miterlimit="10"
            stroke-linecap="round" stroke-linejoin="round" />
        <path d="M145.05 188.3H126.55V217.1H145.05V188.3Z" fill="white" stroke="#263238" stroke-miterlimit="10"
            stroke-linecap="round" stroke-linejoin="round" />
        <path d="M143.05 190.1H128.55V215.7H143.05V190.1Z" fill="#263238" stroke="white" stroke-miterlimit="10"
            stroke-linecap="round" stroke-linejoin="round" />
        <path d="M143.05 190.1H128.55V204.1H143.05V190.1Z" fill="#263238" stroke="white" stroke-miterlimit="10"
            stroke-linecap="round" stroke-linejoin="round" />
        <path d="M139.05 190.1H132.55V204.1H139.05V190.1Z" fill="#263238" stroke="white" stroke-miterlimit="10"
            stroke-linecap="round" stroke-linejoin="round" />
        <path d="M98.6494 192.6H85.6494V212.8H98.6494V192.6Z" fill="white" stroke="#263238" stroke-miterlimit="10"
            stroke-linecap="round" stroke-linejoin="round" />
        <path d="M97.2498 193.9H87.0498V211.4H97.2498V193.9Z" fill="#263238" stroke="white" stroke-miterlimit="10"
            stroke-linecap="round" stroke-linejoin="round" />
        <path d="M97.2498 193.9H87.0498V203.7H97.2498V193.9Z" fill="#263238" stroke="white" stroke-miterlimit="10"
            stroke-linecap="round" stroke-linejoin="round" />
        <path d="M94.4496 193.9H89.8496V203.7H94.4496V193.9Z" fill="#263238" stroke="white" stroke-miterlimit="10"
            stroke-linecap="round" stroke-linejoin="round" />
        <path d="M110.55 235.6H75.4502V271.1H110.55V235.6Z" fill="#82065E" stroke="#263238" stroke-miterlimit="10"
            stroke-linecap="round" stroke-linejoin="round" />
        <path d="M106.55 240.6H79.4502V271.1H106.55V240.6Z" fill="#263238" stroke="#263238" stroke-miterlimit="10"
            stroke-linecap="round" stroke-linejoin="round" />
        <path d="M88.0502 240.6H84.4502V271.1H88.0502V240.6Z" fill="white" stroke="#263238" stroke-miterlimit="10"
            stroke-linecap="round" stroke-linejoin="round" />
        <path d="M100.05 240.6H96.4502V271.1H100.05V240.6Z" fill="white" stroke="#263238" stroke-miterlimit="10"
            stroke-linecap="round" stroke-linejoin="round" />
        <path
            d="M81.05 233.8H76.85L93.05 219.8L109.25 233.8H105.15V236.1H117.35L93.65 215.6C93.35 215.3 92.85 215.3 92.45 215.6L68.75 236.1H81.05V233.8Z"
            fill="#82065E" stroke="#263238" stroke-miterlimit="10" stroke-linecap="round" stroke-linejoin="round" />
        <path d="M110.75 271.1H75.4502V274.2H110.75V271.1Z" fill="#82065E" stroke="#263238" stroke-miterlimit="10"
            stroke-linecap="round" stroke-linejoin="round" />
        <path d="M110.75 274.1H75.4502V277.2H110.75V274.1Z" fill="#82065E" stroke="#263238" stroke-miterlimit="10"
            stroke-linecap="round" stroke-linejoin="round" />
        <path d="M110.75 277.2H75.4502V280.3H110.75V277.2Z" fill="#82065E" stroke="#263238" stroke-miterlimit="10"
            stroke-linecap="round" stroke-linejoin="round" />
        <path d="M79.4502 240.6H75.9502" stroke="#263238" stroke-miterlimit="10" stroke-linecap="round"
            stroke-linejoin="round" />
        <path d="M110.45 240.6H106.95" stroke="#263238" stroke-miterlimit="10" stroke-linecap="round"
            stroke-linejoin="round" />
        <path
            d="M198.55 262C198.55 262 207.95 262.9 212.75 268.8C212.75 268.8 217.75 262 226.85 262.2C229.45 259 231.05 255 231.05 250.5C231.05 240.4 222.85 232.2 212.75 232.2C202.65 232.2 194.45 240.4 194.45 250.5C194.45 254.8 196.05 258.8 198.55 262Z"
            fill="#82065E" />
        <path opacity="0.5"
            d="M198.55 262C198.55 262 207.95 262.9 212.75 268.8C212.75 268.8 217.75 262 226.85 262.2C229.45 259 231.05 255 231.05 250.5C231.05 240.4 222.85 232.2 212.75 232.2C202.65 232.2 194.45 240.4 194.45 250.5C194.45 254.8 196.05 258.8 198.55 262Z"
            fill="white" />
        <path d="M212.45 233.4L212.15 280.6H213.75L212.45 233.4Z" fill="#263238" />
        <path
            d="M212.951 267C212.951 267 216.151 261.3 221.851 259.5C221.851 259.5 215.851 260.9 212.751 265.9L212.951 267Z"
            fill="#263238" />
        <path
            d="M212.951 250.7C212.951 250.7 216.151 245 221.851 243.2C221.851 243.2 215.851 244.6 212.751 249.6L212.951 250.7Z"
            fill="#263238" />
        <path
            d="M212.951 258.9C212.951 258.9 216.151 253.2 221.851 251.4C221.851 251.4 215.851 252.8 212.751 257.8L212.951 258.9Z"
            fill="#263238" />
        <path
            d="M212.451 254.9C212.451 254.9 209.351 249.2 203.851 247.4C203.851 247.4 209.651 248.8 212.551 253.8L212.451 254.9Z"
            fill="#263238" />
        <path
            d="M212.451 262.8C212.451 262.8 209.351 257.1 203.851 255.3C203.851 255.3 209.651 256.7 212.551 261.7L212.451 262.8Z"
            fill="#263238" />
        <path
            d="M372.85 262C372.85 262 382.25 262.9 387.05 268.8C387.05 268.8 392.05 262 401.15 262.2C403.75 259 405.35 255 405.35 250.5C405.35 240.4 397.15 232.2 387.05 232.2C376.95 232.2 368.75 240.4 368.75 250.5C368.75 254.8 370.35 258.8 372.85 262Z"
            fill="#82065E" />
        <path opacity="0.5"
            d="M372.85 262C372.85 262 382.25 262.9 387.05 268.8C387.05 268.8 392.05 262 401.15 262.2C403.75 259 405.35 255 405.35 250.5C405.35 240.4 397.15 232.2 387.05 232.2C376.95 232.2 368.75 240.4 368.75 250.5C368.75 254.8 370.35 258.8 372.85 262Z"
            fill="white" />
        <path d="M386.75 233.4L386.45 280.6H388.05L386.75 233.4Z" fill="#263238" />
        <path
            d="M387.251 267C387.251 267 390.451 261.3 396.151 259.5C396.151 259.5 390.151 260.9 387.051 265.9L387.251 267Z"
            fill="#263238" />
        <path
            d="M387.251 250.7C387.251 250.7 390.451 245 396.151 243.2C396.151 243.2 390.151 244.6 387.051 249.6L387.251 250.7Z"
            fill="#263238" />
        <path
            d="M387.251 258.9C387.251 258.9 390.451 253.2 396.151 251.4C396.151 251.4 390.151 252.8 387.051 257.8L387.251 258.9Z"
            fill="#263238" />
        <path
            d="M386.75 254.9C386.75 254.9 383.65 249.2 378.15 247.4C378.15 247.4 383.95 248.8 386.85 253.8L386.75 254.9Z"
            fill="#263238" />
        <path
            d="M386.75 262.8C386.75 262.8 383.65 257.1 378.15 255.3C378.15 255.3 383.95 256.7 386.85 261.7L386.75 262.8Z"
            fill="#263238" />
        <path
            d="M-5.15 262C-5.15 262 4.25 262.9 9.05 268.8C9.05 268.8 14.05 262 23.15 262.2C25.75 259 27.35 255 27.35 250.5C27.35 240.4 19.15 232.2 9.05 232.2C-1.05 232.2 -9.25 240.4 -9.25 250.5C-9.25 254.8 -7.65 258.8 -5.15 262Z"
            fill="#82065E" />
        <path opacity="0.5"
            d="M-5.15 262C-5.15 262 4.25 262.9 9.05 268.8C9.05 268.8 14.05 262 23.15 262.2C25.75 259 27.35 255 27.35 250.5C27.35 240.4 19.15 232.2 9.05 232.2C-1.05 232.2 -9.25 240.4 -9.25 250.5C-9.25 254.8 -7.65 258.8 -5.15 262Z"
            fill="white" />
        <path d="M8.7502 233.4L8.4502 280.6H10.0502L8.7502 233.4Z" fill="#263238" />
        <path
            d="M9.25078 267C9.25078 267 12.4508 261.3 18.1508 259.5C18.1508 259.5 12.1508 260.9 9.05078 265.9L9.25078 267Z"
            fill="#263238" />
        <path
            d="M9.25078 250.7C9.25078 250.7 12.4508 245 18.1508 243.2C18.1508 243.2 12.1508 244.6 9.05078 249.6L9.25078 250.7Z"
            fill="#263238" />
        <path
            d="M9.25078 258.9C9.25078 258.9 12.4508 253.2 18.1508 251.4C18.1508 251.4 12.1508 252.8 9.05078 257.8L9.25078 258.9Z"
            fill="#263238" />
        <path
            d="M8.75039 254.9C8.75039 254.9 5.65039 249.2 0.150391 247.4C0.150391 247.4 5.95039 248.8 8.85039 253.8L8.75039 254.9Z"
            fill="#263238" />
        <path
            d="M8.75039 262.8C8.75039 262.8 5.65039 257.1 0.150391 255.3C0.150391 255.3 5.95039 256.7 8.85039 261.7L8.75039 262.8Z"
            fill="#263238" />
        <path
            d="M148.05 248C148.05 248 164.45 249.6 172.85 259.8C172.85 259.8 181.65 248 197.45 248.2C202.05 242.7 204.75 235.6 204.85 227.8C204.85 210.2 190.55 195.8 172.95 195.8C155.35 195.8 140.95 210.1 140.95 227.7C140.85 235.5 143.55 242.6 148.05 248Z"
            fill="#82065E" />
        <path opacity="0.3"
            d="M148.05 248C148.05 248 164.45 249.6 172.85 259.8C172.85 259.8 181.65 248 197.45 248.2C202.05 242.7 204.75 235.6 204.85 227.8C204.85 210.2 190.55 195.8 172.95 195.8C155.35 195.8 140.95 210.1 140.95 227.7C140.85 235.5 143.55 242.6 148.05 248Z"
            fill="white" />
        <path d="M172.25 198.2L171.65 280.6H174.45L172.25 198.2Z" fill="#263238" />
        <path
            d="M173.05 256.8C173.05 256.8 178.55 246.8 188.55 243.8C188.55 243.8 178.05 246.3 172.75 254.9L173.05 256.8Z"
            fill="#263238" />
        <path
            d="M173.05 228.5C173.05 228.5 178.55 218.5 188.55 215.5C188.55 215.5 178.05 218 172.75 226.6L173.05 228.5Z"
            fill="#263238" />
        <path
            d="M173.05 242.6C173.05 242.6 178.55 232.6 188.55 229.6C188.55 229.6 178.05 232.1 172.75 240.7L173.05 242.6Z"
            fill="#263238" />
        <path
            d="M172.25 235.7C172.25 235.7 166.85 225.7 157.25 222.7C157.25 222.7 167.45 225.2 172.55 233.8L172.25 235.7Z"
            fill="#263238" />
        <path
            d="M172.25 249.5C172.25 249.5 166.85 239.5 157.25 236.5C157.25 236.5 167.45 239 172.55 247.6L172.25 249.5Z"
            fill="#263238" />
        <path d="M400.25 280H-7.0498V284H400.25V280Z" fill="#263238" stroke="#263238" stroke-miterlimit="10"
            stroke-linecap="round" stroke-linejoin="round" />
        <path
            d="M186.15 133.8C182.85 132 181.35 133.5 180.15 132C178.95 130.5 183.45 126.6 174.45 122.7C174.45 122.7 173.85 114.3 161.55 114C149.25 113.7 152.55 122.4 149.25 124.5C145.95 126.6 145.05 123.3 141.75 125.4C138.45 127.5 139.95 131.7 137.25 132.3C134.55 132.9 130.95 129.6 127.65 131.7C124.35 133.8 124.35 135.6 122.85 135.6C121.35 135.6 118.35 134.4 116.55 135.6C114.75 136.8 112.65 138.3 112.65 138.3H188.65C188.55 138.3 189.45 135.6 186.15 133.8Z"
            fill="white" />
        <path
            d="M319.45 64.1999C317.05 62.8999 315.95 63.9999 315.05 62.8999C314.15 61.7999 317.45 58.9999 310.85 56.0999C310.85 56.0999 310.45 49.9999 301.45 49.7999C292.45 49.5999 294.85 55.8999 292.45 57.4999C290.05 58.9999 289.35 56.5999 286.95 58.1999C284.55 59.6999 285.65 62.7999 283.65 63.1999C281.65 63.5999 279.05 61.1999 276.65 62.7999C274.25 64.2999 274.25 65.5999 273.15 65.5999C272.05 65.5999 269.85 64.6999 268.55 65.5999C267.25 66.4999 265.75 67.5999 265.75 67.5999H321.15C321.25 67.3999 321.95 65.4999 319.45 64.1999Z"
            fill="white" />
        <path
            d="M154.35 122.1C151.95 120.8 150.85 121.9 149.95 120.8C149.05 119.7 152.35 116.9 145.75 114C145.75 114 145.35 107.9 136.35 107.7C127.35 107.5 129.75 113.8 127.35 115.4C124.95 116.9 124.25 114.5 121.85 116.1C119.45 117.6 120.55 120.7 118.55 121.1C116.55 121.5 113.95 119.1 111.55 120.7C109.15 122.2 109.15 123.5 108.05 123.5C106.95 123.5 104.75 122.6 103.45 123.5C102.15 124.4 100.65 125.5 100.65 125.5H156.05C156.15 125.4 156.75 123.4 154.35 122.1Z"
            fill="white" />
        <path
            d="M173.35 27C168.85 24.5 166.85 26.6 165.15 24.5C163.55 22.5 169.65 17.1 157.35 11.8C157.35 11.8 156.55 0.299987 139.75 -0.100013C122.95 -0.500013 127.45 11.4 122.95 14.2C118.45 17.1 117.25 12.6 112.75 15.4C108.25 18.3 110.25 24 106.65 24.8C102.95 25.6 98.0504 21.1 93.5504 24C89.0504 26.9 89.0504 29.3 87.0504 29.3C85.0504 29.3 80.9504 27.7 78.4504 29.3C75.9504 30.9 73.1504 33 73.1504 33H176.65C176.65 33.2 177.85 29.5 173.35 27Z"
            fill="#82065E" />
        <path opacity="0.8"
            d="M173.35 27C168.85 24.5 166.85 26.6 165.15 24.5C163.55 22.5 169.65 17.1 157.35 11.8C157.35 11.8 156.55 0.299987 139.75 -0.100013C122.95 -0.500013 127.45 11.4 122.95 14.2C118.45 17.1 117.25 12.6 112.75 15.4C108.25 18.3 110.25 24 106.65 24.8C102.95 25.6 98.0504 21.1 93.5504 24C89.0504 26.9 89.0504 29.3 87.0504 29.3C85.0504 29.3 80.9504 27.7 78.4504 29.3C75.9504 30.9 73.1504 33 73.1504 33H176.65C176.65 33.2 177.85 29.5 173.35 27Z"
            fill="white" />
    </g>
    <defs>
        <clipPath id="clip0_390_20224">
            <rect width="393" height="285" fill="white" />
        </clipPath>
    </defs>
</svg>
