<svg width="19" height="13" viewBox="0 0 19 13" fill="none" xmlns="http://www.w3.org/2000/svg">
    <path
        d="M16.4908 11.5833V9.77775M1.67592 11.5833V9.77775M17.4167 9.77775H0.75V7.06942C0.75 6.83 0.84755 6.60042 1.0212 6.43108C1.19484 6.26175 1.43036 6.16667 1.67592 6.16667H16.4908C16.7363 6.16667 16.9718 6.26175 17.1455 6.43108C17.3191 6.60042 17.4167 6.83 17.4167 7.06942V9.77775ZM15.5648 1.65278C15.5648 1.41335 15.4672 1.18372 15.2936 1.01442C15.12 0.845117 14.8845 0.75 14.6389 0.75H3.52778C3.28221 0.75 3.04669 0.845117 2.87305 1.01442C2.69941 1.18372 2.60185 1.41335 2.60185 1.65278V6.16667H15.5648V1.65278Z"
        stroke="white" stroke-width="1.5" stroke-linecap="round" stroke-linejoin="round" />
</svg>
